<svg width="169" height="32" viewBox="0 0 169 32" fill="none" xmlns="http://www.w3.org/2000/svg">
<g clip-path="url(#clip0_2673_14637)">
<path d="M32 0H0V32H32V0Z" fill="#FFB820"/>
<mask id="mask0_2673_14637" style="mask-type:luminance" maskUnits="userSpaceOnUse" x="0" y="11" width="32" height="10">
<path d="M32 11H0V21H32V11Z" fill="white"/>
</mask>
<g mask="url(#mask0_2673_14637)">
<mask id="mask1_2673_14637" style="mask-type:luminance" maskUnits="userSpaceOnUse" x="0" y="11" width="32" height="10">
<path d="M32 11H0V21H32V11Z" fill="white"/>
</mask>
<g mask="url(#mask1_2673_14637)">
<path d="M-2.14844 15.4453C-2.00971 20.2237 4.76098 20.6311 4.76098 16.0081" stroke="#DD6A02" stroke-width="3" stroke-linecap="round"/>
<path d="M11.6711 16.0101C11.5324 11.2317 4.76172 11.3871 4.76172 16.0101" stroke="#DD6A02" stroke-width="3" stroke-linecap="round"/>
<path d="M11.6719 16.0078C11.8107 20.7863 18.5813 20.6308 18.5813 16.0078" stroke="#DD6A02" stroke-width="3" stroke-linecap="round"/>
<path d="M25.4875 16.0101C25.3488 11.2317 18.5781 11.3871 18.5781 16.0101" stroke="#DD6A02" stroke-width="3" stroke-linecap="round"/>
<path d="M25.5234 16C25.6841 20.7686 33.5234 20.6135 33.5234 16" stroke="#DD6A02" stroke-width="3" stroke-linecap="round"/>
<path d="M-1.5 16C-1.36126 20.7784 5.65161 20.6298 5.65161 16.0068" stroke="#F8F8F8" stroke-width="3" stroke-linecap="round"/>
<path d="M12.5656 16.0101C12.4269 11.2317 5.65625 11.3871 5.65625 16.0101" stroke="#F8F8F8" stroke-width="3" stroke-linecap="round"/>
<path d="M12.5625 16.0078C12.7013 20.7863 19.4719 20.6308 19.4719 16.0078" stroke="#F8F8F8" stroke-width="3" stroke-linecap="round"/>
<path d="M26.3821 16.0101C26.2434 11.2317 19.4727 11.3871 19.4727 16.0101" stroke="#F8F8F8" stroke-width="3" stroke-linecap="round"/>
<path d="M26.3828 16.0078C26.5257 20.9319 33.5028 20.7717 33.5028 16.0078" stroke="#F8F8F8" stroke-width="3" stroke-linecap="round"/>
</g>
</g>
</g>
<path d="M44.03 26.5C43.0593 26.5 42.366 26.3093 41.95 25.928C41.534 25.5467 41.326 25.0007 41.326 24.29C41.326 23.9433 41.352 23.354 41.404 22.522C41.456 21.6727 41.5253 20.7107 41.612 19.636C41.6987 18.5613 41.7853 17.426 41.872 16.23C41.9587 15.034 42.0453 13.9073 42.132 12.85C42.2187 11.7927 42.288 10.8653 42.34 10.068C42.392 9.27067 42.418 8.72467 42.418 8.43C42.418 8.17 42.5567 8.04 42.834 8.04H51.986C52.09 8.04 52.1853 8.066 52.272 8.118C52.3587 8.17 52.402 8.26533 52.402 8.404L52.298 9.938C52.2633 10.458 52.116 10.8827 51.856 11.212C51.6133 11.524 51.102 11.68 50.322 11.68H46.734L46.474 15.346H50.166C50.27 15.346 50.3653 15.372 50.452 15.424C50.5387 15.476 50.582 15.5713 50.582 15.71L50.478 17.244C50.4433 17.764 50.296 18.1887 50.036 18.518C49.7933 18.83 49.282 18.986 48.502 18.986H46.24L45.954 22.86H51.674C51.778 22.86 51.8733 22.8947 51.96 22.964C52.0467 23.016 52.09 23.1027 52.09 23.224L51.986 24.758C51.9513 25.278 51.804 25.7027 51.544 26.032C51.3013 26.344 50.79 26.5 50.01 26.5H44.03ZM53.3114 23.302C53.3114 21.742 54.0134 20.52 55.4174 19.636C56.8214 18.752 58.8927 18.2753 61.6314 18.206C61.6487 18.0153 61.6574 17.8593 61.6574 17.738C61.6747 17.5993 61.6834 17.4347 61.6834 17.244C61.6834 16.6893 61.5794 16.2473 61.3714 15.918C61.1634 15.5887 60.7301 15.424 60.0714 15.424C59.7074 15.424 59.4127 15.476 59.1874 15.58C58.9621 15.684 58.7801 15.8313 58.6414 16.022C58.5027 16.1953 58.3901 16.412 58.3034 16.672C58.2167 16.932 58.1387 17.218 58.0694 17.53C58.0347 17.686 57.9567 17.79 57.8354 17.842C57.7141 17.8767 57.5234 17.894 57.2634 17.894C55.4954 17.894 54.6114 17.2267 54.6114 15.892C54.6114 15.3547 54.7327 14.8433 54.9754 14.358C55.2354 13.8727 55.6081 13.4567 56.0934 13.11C56.5961 12.746 57.2201 12.46 57.9654 12.252C58.7107 12.044 59.5774 11.94 60.5654 11.94C62.4894 11.94 63.8847 12.3387 64.7514 13.136C65.6181 13.9333 66.0514 15.06 66.0514 16.516C66.0514 16.7067 66.0254 17.0533 65.9734 17.556C65.9387 18.0413 65.8867 18.5613 65.8174 19.116C65.7654 19.6533 65.7134 20.1647 65.6614 20.65C65.6267 21.1353 65.6094 21.4733 65.6094 21.664C65.6094 22.0973 65.6874 22.4093 65.8434 22.6C65.9994 22.7733 66.1727 22.8947 66.3634 22.964C66.5714 23.0333 66.7534 23.0853 66.9094 23.12C67.0654 23.1547 67.1434 23.2413 67.1434 23.38C67.1434 23.7613 67.0914 24.1513 66.9874 24.55C66.8834 24.9487 66.7101 25.3127 66.4674 25.642C66.2421 25.9713 65.9214 26.24 65.5054 26.448C65.1067 26.656 64.6127 26.76 64.0234 26.76C63.1914 26.76 62.5674 26.5607 62.1514 26.162C61.7354 25.7633 61.4581 25.2087 61.3194 24.498C60.9034 25.1047 60.3574 25.6333 59.6814 26.084C59.0227 26.5347 58.1561 26.76 57.0814 26.76C56.5614 26.76 56.0674 26.6993 55.5994 26.578C55.1487 26.4567 54.7501 26.2573 54.4034 25.98C54.0741 25.7027 53.8054 25.3473 53.5974 24.914C53.4067 24.4633 53.3114 23.926 53.3114 23.302ZM61.3974 20.338C60.9467 20.338 60.5047 20.3727 60.0714 20.442C59.6381 20.5113 59.2481 20.624 58.9014 20.78C58.5721 20.9187 58.3034 21.1093 58.0954 21.352C57.8874 21.5947 57.7834 21.8893 57.7834 22.236C57.7834 22.6347 57.9047 22.912 58.1474 23.068C58.4074 23.224 58.6847 23.302 58.9794 23.302C59.2567 23.302 59.5341 23.2413 59.8114 23.12C60.0887 22.9987 60.3314 22.8167 60.5394 22.574C60.7647 22.314 60.9554 22.002 61.1114 21.638C61.2674 21.274 61.3627 20.8407 61.3974 20.338ZM74.7998 11.94C76.2731 11.94 77.3564 12.2347 78.0498 12.824C78.7431 13.396 79.0898 14.1327 79.0898 15.034C79.0898 15.7967 78.8471 16.3773 78.3618 16.776C77.8938 17.1747 77.2091 17.374 76.3078 17.374C76.0651 17.374 75.9004 17.348 75.8138 17.296C75.7271 17.244 75.6838 17.1487 75.6838 17.01C75.6838 16.854 75.6664 16.6807 75.6318 16.49C75.6144 16.282 75.5538 16.0913 75.4498 15.918C75.3631 15.7273 75.2158 15.5713 75.0078 15.45C74.8171 15.3287 74.5398 15.268 74.1758 15.268C73.6904 15.268 73.3004 15.3893 73.0058 15.632C72.7111 15.8573 72.5638 16.1433 72.5638 16.49C72.5638 16.854 72.7111 17.1487 73.0058 17.374C73.3178 17.582 73.6991 17.7813 74.1498 17.972C74.6178 18.1627 75.1204 18.362 75.6578 18.57C76.1951 18.7607 76.6891 19.0207 77.1398 19.35C77.6078 19.6793 77.9891 20.0953 78.2838 20.598C78.5958 21.0833 78.7518 21.716 78.7518 22.496C78.7518 23.744 78.3098 24.7667 77.4258 25.564C76.5418 26.3613 75.2158 26.76 73.4478 26.76C72.9624 26.76 72.3991 26.7167 71.7578 26.63C71.1338 26.5607 70.5358 26.448 69.9638 26.292C69.3918 26.1187 68.9064 25.8933 68.5078 25.616C68.1264 25.3387 67.9358 24.992 67.9358 24.576C67.9358 24.42 67.9618 24.2293 68.0138 24.004C68.0831 23.7787 68.1784 23.562 68.2998 23.354C68.4384 23.146 68.5944 22.9727 68.7678 22.834C68.9584 22.678 69.1838 22.6 69.4438 22.6C69.6518 22.6 69.8424 22.652 70.0158 22.756C70.1891 22.86 70.3884 22.9727 70.6138 23.094C70.8564 23.198 71.1511 23.302 71.4978 23.406C71.8444 23.51 72.3038 23.562 72.8758 23.562C73.3091 23.562 73.6904 23.51 74.0198 23.406C74.3664 23.302 74.5398 23.068 74.5398 22.704C74.5398 22.3747 74.4011 22.1147 74.1238 21.924C73.8464 21.716 73.4911 21.5253 73.0578 21.352C72.6418 21.1787 72.1824 20.9967 71.6798 20.806C71.1944 20.598 70.7351 20.3293 70.3018 20C69.8858 19.6707 69.5391 19.2547 69.2618 18.752C68.9844 18.232 68.8458 17.5647 68.8458 16.75C68.8458 15.866 69.0191 15.1207 69.3658 14.514C69.7298 13.89 70.1891 13.3873 70.7438 13.006C71.3158 12.6247 71.9571 12.356 72.6678 12.2C73.3784 12.0267 74.0891 11.94 74.7998 11.94ZM85.9207 14.592C85.9207 14.9907 85.8947 15.4673 85.8427 16.022C85.7907 16.5593 85.73 17.1053 85.6607 17.66C85.6087 18.1973 85.5567 18.7087 85.5047 19.194C85.4527 19.662 85.4267 20.026 85.4267 20.286C85.4267 20.9447 85.5827 21.4387 85.8947 21.768C86.224 22.08 86.6227 22.236 87.0907 22.236C87.9053 22.236 88.5553 21.8113 89.0407 20.962C89.526 20.1127 89.8293 18.986 89.9507 17.582L90.3667 12.72C90.384 12.5293 90.4447 12.3993 90.5487 12.33C90.67 12.2433 90.8 12.2 90.9387 12.2H91.8747C92.2387 12.2 92.5767 12.2347 92.8887 12.304C93.218 12.356 93.504 12.4687 93.7467 12.642C93.9893 12.798 94.18 13.0147 94.3187 13.292C94.4573 13.5693 94.5267 13.9247 94.5267 14.358C94.5267 14.5313 94.5093 14.8607 94.4747 15.346C94.4573 15.814 94.414 16.4987 94.3447 17.4C94.2927 18.284 94.2147 19.4107 94.1107 20.78C94.0067 22.132 93.8853 23.7873 93.7467 25.746C93.66 26.89 93.4 27.8347 92.9667 28.58C92.5507 29.3427 92.022 29.9407 91.3807 30.374C90.7393 30.8247 90.02 31.1367 89.2227 31.31C88.4253 31.4833 87.6107 31.57 86.7787 31.57C85.8947 31.57 85.08 31.492 84.3347 31.336C83.6067 31.18 82.974 30.9633 82.4367 30.686C81.8993 30.4087 81.4747 30.088 81.1627 29.724C80.868 29.36 80.7207 28.97 80.7207 28.554C80.7207 28.2247 80.79 27.9387 80.9287 27.696C81.0847 27.4533 81.284 27.254 81.5267 27.098C81.7693 26.942 82.0467 26.8207 82.3587 26.734C82.688 26.6647 83.026 26.63 83.3727 26.63C83.546 26.63 83.6673 26.7167 83.7367 26.89C83.8233 27.0633 83.9447 27.254 84.1007 27.462C84.274 27.6873 84.5427 27.8867 84.9067 28.06C85.2707 28.2333 85.8167 28.32 86.5447 28.32C87.186 28.32 87.706 28.164 88.1047 27.852C88.5033 27.54 88.8067 27.1413 89.0147 26.656C89.24 26.1707 89.3873 25.642 89.4567 25.07C89.526 24.498 89.5607 23.952 89.5607 23.432C89.2833 23.9173 88.9713 24.316 88.6247 24.628C88.2953 24.9227 87.9487 25.1567 87.5847 25.33C87.2207 25.486 86.8567 25.59 86.4927 25.642C86.1287 25.694 85.782 25.72 85.4527 25.72C84.8113 25.72 84.222 25.6333 83.6847 25.46C83.1647 25.2867 82.714 25.0093 82.3327 24.628C81.9513 24.2293 81.6567 23.718 81.4487 23.094C81.2407 22.47 81.1367 21.716 81.1367 20.832C81.1367 20.5027 81.154 20.0693 81.1887 19.532C81.2233 18.9773 81.2667 18.362 81.3187 17.686C81.3707 16.9927 81.4227 16.2473 81.4747 15.45C81.544 14.6527 81.6133 13.838 81.6827 13.006C81.7173 12.4687 81.96 12.2 82.4107 12.2H83.2427C83.7973 12.2 84.248 12.252 84.5947 12.356C84.9413 12.46 85.21 12.616 85.4007 12.824C85.6087 13.0147 85.7473 13.266 85.8167 13.578C85.886 13.8727 85.9207 14.2107 85.9207 14.592ZM104.234 7.78C105.863 7.78 107.068 8.13533 107.848 8.846C108.645 9.55667 109.044 10.484 109.044 11.628C109.044 12.5987 108.775 13.344 108.238 13.864C107.7 14.3667 106.929 14.618 105.924 14.618C105.612 14.618 105.412 14.592 105.326 14.54C105.239 14.4707 105.196 14.3407 105.196 14.15C105.196 13.9767 105.178 13.7513 105.144 13.474C105.126 13.1967 105.066 12.928 104.962 12.668C104.858 12.408 104.693 12.1913 104.468 12.018C104.242 11.8273 103.93 11.732 103.532 11.732C102.977 11.732 102.483 11.9053 102.05 12.252C101.616 12.5813 101.4 13.0147 101.4 13.552C101.4 14.02 101.573 14.4013 101.92 14.696C102.284 14.9907 102.734 15.268 103.272 15.528C103.809 15.7707 104.39 16.022 105.014 16.282C105.655 16.542 106.244 16.8887 106.782 17.322C107.319 17.738 107.761 18.2667 108.108 18.908C108.472 19.532 108.654 20.3293 108.654 21.3C108.654 22.0627 108.524 22.782 108.264 23.458C108.021 24.1167 107.648 24.6973 107.146 25.2C106.66 25.6853 106.036 26.0667 105.274 26.344C104.528 26.6213 103.653 26.76 102.648 26.76C101.781 26.76 100.975 26.6647 100.23 26.474C99.5018 26.2833 98.8605 26.0493 98.3058 25.772C97.7685 25.4773 97.3438 25.1653 97.0318 24.836C96.7198 24.4893 96.5638 24.1773 96.5638 23.9C96.5638 22.756 96.6245 21.9327 96.7458 21.43C96.8845 20.9273 97.1271 20.676 97.4738 20.676C97.7165 20.676 97.9678 20.78 98.2278 20.988C98.5051 21.196 98.8171 21.43 99.1638 21.69C99.5105 21.95 99.9091 22.184 100.36 22.392C100.828 22.6 101.365 22.704 101.972 22.704C102.214 22.704 102.448 22.6867 102.674 22.652C102.916 22.6 103.124 22.522 103.298 22.418C103.488 22.314 103.636 22.1753 103.74 22.002C103.861 21.8287 103.922 21.6207 103.922 21.378C103.922 20.9447 103.757 20.598 103.428 20.338C103.098 20.078 102.682 19.844 102.18 19.636C101.677 19.4107 101.131 19.1853 100.542 18.96C99.9698 18.7173 99.4325 18.3967 98.9298 17.998C98.4271 17.582 98.0111 17.0533 97.6818 16.412C97.3525 15.7707 97.1878 14.9473 97.1878 13.942C97.1878 12.8153 97.3958 11.862 97.8118 11.082C98.2451 10.302 98.7911 9.66933 99.4498 9.184C100.126 8.68133 100.88 8.326 101.712 8.118C102.561 7.89267 103.402 7.78 104.234 7.78ZM119.886 11.94C121.516 11.94 122.738 12.4427 123.552 13.448C124.384 14.4533 124.8 16.0393 124.8 18.206C124.8 19.558 124.644 20.7627 124.332 21.82C124.02 22.8773 123.587 23.7787 123.032 24.524C122.478 25.252 121.828 25.8067 121.082 26.188C120.337 26.5693 119.531 26.76 118.664 26.76C117.746 26.76 117.026 26.5607 116.506 26.162C115.986 25.7633 115.579 25.2 115.284 24.472C115.232 25.096 115.189 25.5727 115.154 25.902C115.12 26.2313 115.094 26.4913 115.076 26.682C115.059 26.89 115.042 27.072 115.024 27.228C115.024 27.384 115.007 27.592 114.972 27.852C114.955 28.112 114.929 28.4673 114.894 28.918C114.86 29.3687 114.808 29.9927 114.738 30.79C114.721 30.998 114.678 31.1367 114.608 31.206C114.539 31.2753 114.392 31.31 114.166 31.31H113.23C112.693 31.31 112.251 31.2493 111.904 31.128C111.575 31.024 111.306 30.868 111.098 30.66C110.908 30.452 110.769 30.192 110.682 29.88C110.613 29.5853 110.578 29.2387 110.578 28.84C110.578 28.6667 110.604 28.1987 110.656 27.436C110.708 26.6733 110.769 25.7633 110.838 24.706C110.925 23.6313 111.012 22.4787 111.098 21.248C111.202 20.0173 111.298 18.8473 111.384 17.738C111.471 16.6113 111.54 15.6147 111.592 14.748C111.662 13.8813 111.714 13.2833 111.748 12.954C111.766 12.5727 111.809 12.3473 111.878 12.278C111.93 12.226 112.069 12.2 112.294 12.2H113.308C114.244 12.2 114.92 12.3993 115.336 12.798C115.77 13.1793 115.986 13.6387 115.986 14.176C116.385 13.3787 116.896 12.8067 117.52 12.46C118.162 12.1133 118.95 11.94 119.886 11.94ZM117.988 15.398C117.104 15.398 116.454 15.7793 116.038 16.542C115.622 17.3047 115.414 18.3447 115.414 19.662C115.414 20.1127 115.44 20.5547 115.492 20.988C115.562 21.4213 115.674 21.8113 115.83 22.158C115.986 22.5047 116.194 22.782 116.454 22.99C116.732 23.198 117.078 23.302 117.494 23.302C118.24 23.302 118.864 22.938 119.366 22.21C119.869 21.482 120.12 20.338 120.12 18.778C120.12 18.3447 120.086 17.9287 120.016 17.53C119.964 17.114 119.86 16.75 119.704 16.438C119.548 16.126 119.332 15.8747 119.054 15.684C118.777 15.4933 118.422 15.398 117.988 15.398ZM132.816 26.76C132.053 26.76 131.291 26.6647 130.528 26.474C129.783 26.2833 129.107 25.954 128.5 25.486C127.911 25.018 127.425 24.394 127.044 23.614C126.663 22.834 126.472 21.8547 126.472 20.676C126.472 20.2427 126.507 19.7227 126.576 19.116C126.645 18.5093 126.775 17.8853 126.966 17.244C127.174 16.6027 127.451 15.97 127.798 15.346C128.162 14.7047 128.63 14.1327 129.202 13.63C129.774 13.1273 130.467 12.72 131.282 12.408C132.097 12.096 133.067 11.94 134.194 11.94C135.095 11.94 135.858 12.044 136.482 12.252C137.106 12.46 137.609 12.746 137.99 13.11C138.371 13.4567 138.649 13.864 138.822 14.332C138.995 14.8 139.082 15.3027 139.082 15.84C139.082 16.6373 138.917 17.3133 138.588 17.868C138.276 18.4227 137.86 18.8907 137.34 19.272C136.837 19.636 136.274 19.922 135.65 20.13C135.026 20.338 134.411 20.5027 133.804 20.624C133.197 20.728 132.634 20.7973 132.114 20.832C131.611 20.8493 131.221 20.858 130.944 20.858C130.944 21.1873 130.987 21.5167 131.074 21.846C131.178 22.158 131.325 22.4353 131.516 22.678C131.707 22.9207 131.958 23.12 132.27 23.276C132.582 23.432 132.963 23.51 133.414 23.51C133.865 23.51 134.211 23.4407 134.454 23.302C134.714 23.146 134.922 22.9813 135.078 22.808C135.234 22.6173 135.364 22.4527 135.468 22.314C135.589 22.158 135.745 22.08 135.936 22.08C136.023 22.08 136.17 22.106 136.378 22.158C136.603 22.1927 136.829 22.2793 137.054 22.418C137.279 22.5567 137.479 22.7473 137.652 22.99C137.825 23.2327 137.912 23.5447 137.912 23.926C137.912 24.4287 137.756 24.862 137.444 25.226C137.132 25.59 136.725 25.8847 136.222 26.11C135.737 26.3353 135.191 26.5 134.584 26.604C133.977 26.708 133.388 26.76 132.816 26.76ZM133.31 15.398C132.929 15.398 132.599 15.5107 132.322 15.736C132.062 15.944 131.837 16.2127 131.646 16.542C131.473 16.8713 131.334 17.2353 131.23 17.634C131.143 18.0327 131.074 18.414 131.022 18.778C132.097 18.7607 132.963 18.5787 133.622 18.232C134.298 17.8853 134.636 17.3913 134.636 16.75C134.636 16.4033 134.523 16.0913 134.298 15.814C134.09 15.5367 133.761 15.398 133.31 15.398ZM139.868 23.302C139.868 21.742 140.57 20.52 141.974 19.636C143.378 18.752 145.449 18.2753 148.188 18.206C148.205 18.0153 148.214 17.8593 148.214 17.738C148.231 17.5993 148.24 17.4347 148.24 17.244C148.24 16.6893 148.136 16.2473 147.928 15.918C147.72 15.5887 147.287 15.424 146.628 15.424C146.264 15.424 145.969 15.476 145.744 15.58C145.519 15.684 145.337 15.8313 145.198 16.022C145.059 16.1953 144.947 16.412 144.86 16.672C144.773 16.932 144.695 17.218 144.626 17.53C144.591 17.686 144.513 17.79 144.392 17.842C144.271 17.8767 144.08 17.894 143.82 17.894C142.052 17.894 141.168 17.2267 141.168 15.892C141.168 15.3547 141.289 14.8433 141.532 14.358C141.792 13.8727 142.165 13.4567 142.65 13.11C143.153 12.746 143.777 12.46 144.522 12.252C145.267 12.044 146.134 11.94 147.122 11.94C149.046 11.94 150.441 12.3387 151.308 13.136C152.175 13.9333 152.608 15.06 152.608 16.516C152.608 16.7067 152.582 17.0533 152.53 17.556C152.495 18.0413 152.443 18.5613 152.374 19.116C152.322 19.6533 152.27 20.1647 152.218 20.65C152.183 21.1353 152.166 21.4733 152.166 21.664C152.166 22.0973 152.244 22.4093 152.4 22.6C152.556 22.7733 152.729 22.8947 152.92 22.964C153.128 23.0333 153.31 23.0853 153.466 23.12C153.622 23.1547 153.7 23.2413 153.7 23.38C153.7 23.7613 153.648 24.1513 153.544 24.55C153.44 24.9487 153.267 25.3127 153.024 25.642C152.799 25.9713 152.478 26.24 152.062 26.448C151.663 26.656 151.169 26.76 150.58 26.76C149.748 26.76 149.124 26.5607 148.708 26.162C148.292 25.7633 148.015 25.2087 147.876 24.498C147.46 25.1047 146.914 25.6333 146.238 26.084C145.579 26.5347 144.713 26.76 143.638 26.76C143.118 26.76 142.624 26.6993 142.156 26.578C141.705 26.4567 141.307 26.2573 140.96 25.98C140.631 25.7027 140.362 25.3473 140.154 24.914C139.963 24.4633 139.868 23.926 139.868 23.302ZM147.954 20.338C147.503 20.338 147.061 20.3727 146.628 20.442C146.195 20.5113 145.805 20.624 145.458 20.78C145.129 20.9187 144.86 21.1093 144.652 21.352C144.444 21.5947 144.34 21.8893 144.34 22.236C144.34 22.6347 144.461 22.912 144.704 23.068C144.964 23.224 145.241 23.302 145.536 23.302C145.813 23.302 146.091 23.2413 146.368 23.12C146.645 22.9987 146.888 22.8167 147.096 22.574C147.321 22.314 147.512 22.002 147.668 21.638C147.824 21.274 147.919 20.8407 147.954 20.338ZM167.648 24.394C167.648 24.4807 167.605 24.654 167.518 24.914C167.432 25.174 167.293 25.4427 167.102 25.72C166.912 25.9973 166.669 26.24 166.374 26.448C166.097 26.656 165.759 26.76 165.36 26.76C164.892 26.76 164.424 26.604 163.956 26.292C163.506 25.98 163.055 25.5553 162.604 25.018C162.154 24.4807 161.694 23.848 161.226 23.12C160.776 22.3747 160.316 21.5687 159.848 20.702C159.779 21.6207 159.71 22.522 159.64 23.406C159.571 24.29 159.502 25.148 159.432 25.98C159.415 26.188 159.372 26.3267 159.302 26.396C159.233 26.4653 159.086 26.5 158.86 26.5H157.924C157.387 26.5 156.945 26.448 156.598 26.344C156.252 26.2227 155.983 26.058 155.792 25.85C155.602 25.642 155.463 25.382 155.376 25.07C155.307 24.7407 155.272 24.368 155.272 23.952C155.272 23.744 155.281 23.5273 155.298 23.302C155.316 23.0767 155.342 22.756 155.376 22.34C155.411 21.924 155.454 21.378 155.506 20.702C155.576 20.026 155.654 19.1333 155.74 18.024C155.827 16.9147 155.922 15.554 156.026 13.942C156.148 12.3127 156.278 10.3367 156.416 8.014C156.434 7.63267 156.477 7.40733 156.546 7.338C156.598 7.286 156.737 7.26 156.962 7.26H157.976C158.514 7.26 158.956 7.32067 159.302 7.442C159.649 7.56333 159.926 7.728 160.134 7.936C160.342 8.144 160.481 8.38667 160.55 8.664C160.637 8.94133 160.68 9.22733 160.68 9.522C160.68 9.69533 160.663 9.99 160.628 10.406C160.611 10.8047 160.585 11.2987 160.55 11.888C160.516 12.46 160.464 13.11 160.394 13.838C160.342 14.566 160.29 15.3287 160.238 16.126L164.398 12.33C164.554 12.1913 164.693 12.096 164.814 12.044C164.953 11.992 165.057 11.966 165.126 11.966C165.317 11.966 165.525 12.0873 165.75 12.33C165.976 12.5727 166.184 12.8587 166.374 13.188C166.582 13.5 166.747 13.8293 166.868 14.176C167.007 14.5053 167.076 14.774 167.076 14.982C167.076 15.4847 166.669 16.0133 165.854 16.568C165.057 17.1227 163.844 17.7467 162.214 18.44C162.942 19.2547 163.636 20 164.294 20.676C164.953 21.352 165.525 21.95 166.01 22.47C166.513 22.99 166.912 23.4147 167.206 23.744C167.501 24.0733 167.648 24.29 167.648 24.394Z" fill="#FFB820"/>
<defs>
<clipPath id="clip0_2673_14637">
<rect width="32" height="32" fill="white"/>
</clipPath>
</defs>
</svg>
